<svg xmlns="http://www.w3.org/2000/svg" width="20" height="20" viewBox="0 0 20 20" fill="none">
    <path d="M16.6667 1.66699H3.33341C2.50008 1.66699 1.66675 2.41699 1.66675 3.33366V5.84199C1.66675 6.44199 2.02508 6.95866 2.50008 7.25033V16.667C2.50008 17.5837 3.41675 18.3337 4.16675 18.3337H15.8334C16.5834 18.3337 17.5001 17.5837 17.5001 16.667V7.25033C17.9751 6.95866 18.3334 6.44199 18.3334 5.84199V3.33366C18.3334 2.41699 17.5001 1.66699 16.6667 1.66699ZM15.8334 16.667H4.16675V7.50033H15.8334V16.667ZM16.6667 5.83366H3.33341V3.33366L16.6667 3.31699V5.83366Z" fill="#272727" />
    <path d="M7.5 10H12.5V11.6667H7.5V10Z" fill="#272727" />
</svg>