<svg xmlns="http://www.w3.org/2000/svg" width="20" height="20" viewBox="0 0 20 20" fill="none">
    <path d="M11.1458 18.1869L5.83325 16.6869V9.16602H7.16659C7.26381 9.16602 7.36103 9.17657 7.45825 9.19768C7.55547 9.21879 7.6527 9.24296 7.74992 9.27018L13.5208 11.416C13.7152 11.4855 13.8716 11.6105 13.9899 11.791C14.1083 11.9716 14.1671 12.1591 14.1666 12.3535C14.1666 12.6452 14.0658 12.8813 13.8641 13.0619C13.6624 13.2424 13.4299 13.3327 13.1666 13.3327H10.9791C10.9096 13.3327 10.8577 13.3294 10.8233 13.3227C10.7888 13.316 10.7435 13.2985 10.6874 13.2702L9.74992 12.916C9.63881 12.8744 9.5277 12.8813 9.41658 12.9369C9.30547 12.9924 9.23603 13.0688 9.20825 13.166C9.18047 13.2771 9.18742 13.3813 9.22908 13.4785C9.27075 13.5757 9.34714 13.6452 9.45825 13.6869L10.6874 14.1244C10.7152 14.1382 10.7569 14.1488 10.8124 14.156C10.868 14.1632 10.9166 14.1666 10.9583 14.166H16.6666C17.111 14.166 17.4999 14.3257 17.8333 14.6452C18.1666 14.9646 18.3333 15.3605 18.3333 15.8327L12.1874 18.1452C12.0485 18.2007 11.8785 18.2321 11.6774 18.2394C11.4763 18.2466 11.2991 18.2291 11.1458 18.1869ZM0.833252 16.666V10.8327C0.833252 10.3744 0.996585 9.98213 1.32325 9.65602C1.64992 9.32991 2.04214 9.16657 2.49992 9.16602C2.9577 9.16546 3.3502 9.3288 3.67742 9.65602C4.00464 9.98324 4.1677 10.3755 4.16659 10.8327V16.666C4.16659 17.1244 4.00353 17.5169 3.67742 17.8435C3.35131 18.1702 2.95881 18.3332 2.49992 18.3327C2.04103 18.3321 1.64881 18.1691 1.32325 17.8435C0.997696 17.518 0.834363 17.1255 0.833252 16.666Z" fill="#0A2D27" />
    <path d="M14.9166 2.72873L10.7707 6.85373L8.99991 5.0829C8.83324 4.91567 8.6388 4.83567 8.41657 4.8429C8.19435 4.85012 7.99991 4.93012 7.83324 5.0829C7.66602 5.24956 7.57907 5.44401 7.57241 5.66623C7.56574 5.88845 7.64574 6.0829 7.81241 6.24956L10.1874 8.62456C10.3541 8.79123 10.5485 8.87456 10.7707 8.87456C10.993 8.87456 11.1874 8.79123 11.3541 8.62456L16.0832 3.8954C16.236 3.74262 16.3124 3.54817 16.3124 3.31206C16.3124 3.07595 16.236 2.88151 16.0832 2.72873C15.9171 2.56151 15.7193 2.48151 15.4899 2.48873C15.2605 2.49595 15.0694 2.57595 14.9166 2.72873Z" fill="#26B29D" />
</svg>